<svg width="322" height="322" viewBox="0 0 322 322" fill="none" xmlns="http://www.w3.org/2000/svg">
<path d="M167.064 272.895C217.955 272.895 259.21 270.781 259.21 268.172C259.21 265.564 217.955 263.45 167.064 263.45C116.174 263.45 74.9187 265.564 74.9187 268.172C74.9187 270.781 116.174 272.895 167.064 272.895Z" fill="#E3F0FF"/>
<path d="M207.422 267.206C207.422 267.206 205.651 264.201 209.461 262.752C213.271 261.303 221.912 260.391 221.053 257.439C220.194 254.487 217.243 249.174 224.649 244.13C232.001 239.139 230.552 236.992 231.572 237.475C232.591 237.958 235.06 240.91 234.631 243.7C234.201 246.491 232.162 247.189 233.128 248.101C234.094 248.96 237.368 245.793 237.368 242.842C237.368 239.89 237.529 237.743 239.675 238.978C241.768 240.212 241.5 241.983 243.003 240.641C244.505 239.3 245.471 236.616 244.827 232.645C244.237 228.674 246.169 225.722 248.96 225.615C251.75 225.507 257.546 230.713 258.029 238.602C258.459 246.491 253.575 252.931 254.273 254.917C254.97 256.956 258.029 255.99 259.639 253.092C261.196 250.194 265.06 254.756 264.04 258.727C262.967 262.698 262.001 267.045 259.639 267.85C257.278 268.655 215.364 268.011 212.198 268.011C208.978 268.011 208.012 268.065 207.422 267.206Z" fill="#FF8D76"/>
<path d="M217.35 265.865C219.55 265.811 226.151 265.865 225.346 262.162C224.541 258.459 223.146 256.902 225.454 253.736C227.761 250.57 230.284 252.502 230.391 254.112C230.498 255.668 229.854 258.834 232.591 258.405C235.328 257.976 235.382 250.57 237.69 249.979C239.997 249.389 240.695 251.643 241.017 253.843C241.393 256.044 244.076 253.682 245.149 251.053C246.223 248.423 246.115 244.827 248.584 243.754C251.053 242.681 252.287 248.852 251.214 254.487C250.14 260.122 249.282 262.913 250.623 263.45C251.965 263.986 254.595 262.645 255.829 264.684C257.063 266.723 255.239 268.119 250.194 268.119C245.203 268.119 219.604 268.119 215.579 268.119C211.447 268.065 212.305 265.972 217.35 265.865Z" fill="#FEC272"/>
<path d="M71.2694 180.535C69.6594 183.379 65.3124 181.93 63.273 178.71C61.2337 175.436 58.1747 177.368 58.8724 183.808C59.57 190.195 62.146 194.434 66.7614 197.493C71.3767 200.552 76.5824 201.787 75.348 203.88C74.1137 205.973 72.1817 210.749 79.1047 213.164C86.0277 215.633 96.0634 214.506 101.215 208.71C106.421 202.914 106.421 190.141 104.006 183.272C101.645 176.402 96.8684 172.055 95.312 168.889C93.7557 165.723 90.8577 167.923 91.3407 170.875C91.8774 173.826 92.8434 175.544 90.7504 175.597C88.6574 175.651 87.262 168.46 80.983 167.118C74.704 165.723 73.6844 169.479 69.713 167.333C65.7417 165.132 64.2927 165.347 64.0244 168.782C63.756 172.27 66.3857 176.08 68.6397 176.671C72.0207 177.529 72.3427 178.603 71.2694 180.535Z" fill="#FEC272"/>
<path d="M80.4999 183.862C81.0903 186.921 78.5679 190.248 74.1673 188.316C69.7666 186.384 68.2103 187.941 70.4643 192.019C72.7183 196.098 77.7629 199.855 80.4999 201.25C83.2369 202.645 81.3586 204.685 81.7343 206.778C82.1099 208.871 88.2279 212.037 94.3996 205.275C100.571 198.513 100.625 189.926 98.8539 183.647C97.0829 177.422 94.7216 178.388 94.7216 180.481C94.7216 182.574 94.9899 186.706 93.3799 186.277C91.8236 185.848 89.6233 182.789 87.5839 179.247C84.0956 173.182 75.5626 168.245 74.4356 172.914C73.6306 176.188 79.6413 179.193 80.4999 183.862Z" fill="#FF8D76"/>
<path d="M204.953 163.844C197.225 157.565 190.195 146.295 188.638 126.063C187.511 111.412 192.395 104.918 197.44 102.503C202.431 100.142 202.431 97.7806 204.685 98.4246C206.939 99.0686 206.402 104.221 204.309 106.743C202.216 109.265 201.948 113.183 205.114 113.451C208.28 113.72 208.656 108.031 209.193 102.772C209.729 97.5123 211.017 95.4193 217.243 92.5213C223.468 89.6233 226.742 87.5303 228.03 83.2907C229.371 79.051 230.659 79.3193 233.021 80.5C235.382 81.6807 236.187 87.2083 234.201 89.3013C232.216 91.3943 230.659 93.0043 230.928 94.829C231.196 96.6537 232.108 93.7557 237.529 91.126C242.949 88.4963 245.149 80.6073 245.847 76.5287C246.545 72.45 247.94 71.3767 251.75 73.255C255.561 75.0797 260.444 82.3247 259.103 92.1993C257.761 102.074 251.053 108.782 250.033 114.095C248.96 119.355 252.287 120.535 255.722 118.55C259.156 116.564 257.278 110.661 259.156 107.87C260.981 105.079 266.67 111.036 268.387 121.018C270.104 131 272.734 146.886 257.868 161.751C242.52 176.993 220.033 176.134 204.953 163.844Z" fill="#FEC272"/>
<path d="M210.695 116.993C214.452 110.875 218.316 111.09 218.477 113.29C218.584 115.544 215.472 118.711 217.028 120.267C218.584 121.823 220.731 119.086 221.375 115.115C222.019 111.144 225.829 108.943 229.801 107.065C233.772 105.24 235.489 101.269 237.421 101.162C239.353 101.054 240.051 105.24 238.763 107.763C237.421 110.285 232.699 111.573 232.699 115.115C232.699 118.657 236.187 118.872 237.69 115.92C239.192 112.968 238.817 111.358 241.983 111.09C245.149 110.822 244.881 118.389 242.788 121.179C240.695 123.97 237.099 126.17 238.763 128.907C240.427 131.644 243.486 128.907 245.149 127.083C246.813 125.258 250.14 127.244 250.677 130.786C251.214 134.274 244.344 140.285 244.774 143.344C245.203 146.403 247.94 145.651 249.496 143.505C251.053 141.412 253.092 144.095 252.555 147.637C252.019 151.179 242.466 162.932 225.4 158.424C200.606 151.93 203.987 127.995 210.695 116.993Z" fill="#FF8D76"/>
<path d="M121.501 109.695L177.1 61.2337C177.637 60.7507 178.442 60.8043 178.925 61.341C179.408 61.8777 179.354 62.7363 178.817 63.2193L124.131 113.237L121.501 109.695Z" fill="#E1ECFF"/>
<path d="M116.296 119.569L85.8131 52.3786C85.4911 51.7346 85.8131 50.9296 86.4571 50.6613C87.1011 50.3393 87.9061 50.6076 88.2281 51.3053L120.428 118.12L116.296 119.569Z" fill="#E1ECFF"/>
<path d="M116.618 124.882C122.16 124.882 126.653 120.389 126.653 114.847C126.653 109.304 122.16 104.811 116.618 104.811C111.075 104.811 106.582 109.304 106.582 114.847C106.582 120.389 111.075 124.882 116.618 124.882Z" fill="#10411B"/>
<path d="M116.188 111.573C118.856 111.573 121.018 110.228 121.018 108.568C121.018 106.908 118.856 105.562 116.188 105.562C113.521 105.562 111.358 106.908 111.358 108.568C111.358 110.228 113.521 111.573 116.188 111.573Z" fill="#1C6F2F"/>
<path d="M195.615 238.495C195.454 243.056 190.141 243.217 187.511 237.958C186.277 235.436 184.238 231.142 182.467 227.386C180.535 223.253 178.925 219.711 178.925 219.711L194.22 221.268C194.22 221.268 194.542 223.951 194.917 227.332C195.347 231.196 195.722 236.026 195.615 238.495Z" fill="#04671B"/>
<path d="M194.918 227.332C194.166 227.493 193.308 227.654 192.395 227.815C189.229 228.352 185.58 227.976 182.521 227.386C180.589 223.253 178.979 219.711 178.979 219.711L194.274 221.268C194.22 221.268 194.596 223.951 194.918 227.332Z" fill="#034A14"/>
<path d="M91.8775 220.999C90.2675 225.293 95.0438 227.493 99.4982 223.683C101.645 221.858 105.187 218.692 108.3 215.901C111.681 212.842 114.579 210.212 114.579 210.212L99.8738 205.651C99.8738 205.651 98.5322 208.012 96.8685 210.964C95.0438 214.452 92.7362 218.692 91.8775 220.999Z" fill="#04671B"/>
<path d="M96.9221 211.017C97.5661 211.5 98.2638 211.983 99.0688 212.466C101.752 214.184 105.24 215.257 108.353 215.955C111.734 212.896 114.632 210.266 114.632 210.266L99.9274 205.704C99.9274 205.704 98.5858 208.066 96.9221 211.017Z" fill="#034A14"/>
<path d="M234.631 163.147C232.591 179.193 230.767 196.205 227.278 207.958C226.849 209.461 226.366 210.856 225.829 212.144C221.375 223.736 213.271 221.375 202.806 222.341C192.341 223.307 189.175 223.2 189.175 223.2L191.858 206.885L204.631 129.82L229.693 132.02C229.693 132.02 231.035 132.986 232.162 134.811C233.343 136.689 236.938 145.007 234.631 163.147Z" fill="#10411B"/>
<path d="M227.278 207.958C226.849 209.461 226.366 210.856 225.829 212.144C221.375 223.736 213.271 221.375 202.806 222.341C192.341 223.307 189.175 223.2 189.175 223.2L191.858 206.885L227.278 207.958Z" fill="#034A14"/>
<path d="M96.3318 118.389C96.3318 118.389 102.879 114.954 110.285 114.686C117.691 114.417 176.295 120.267 195.454 122.36C214.613 124.453 222.878 127.083 226.742 129.122C230.606 131.161 232.162 134.811 232.162 134.811L201.411 132.02L96.3318 118.389Z" fill="#055016"/>
<path d="M84.6324 189.497L88.5501 129.068C88.9794 122.092 95.2048 116.886 102.128 117.691L201.733 128.961C207.958 129.659 212.413 135.24 211.822 141.412L205.275 207.368C204.255 217.511 194.864 224.649 184.828 222.985L99.6591 208.549C90.5358 206.992 84.0421 198.728 84.6324 189.497Z" fill="#1C6F2F"/>
<path d="M177.905 209.407L185.096 139.694C185.418 136.743 188.048 134.596 191 134.918L203.504 136.313C206.456 136.635 208.549 139.319 208.227 142.217L200.177 211.983C199.855 214.935 197.118 217.028 194.166 216.652L182.574 215.203C179.676 214.881 177.583 212.305 177.905 209.407Z" fill="#FEC272"/>
<path d="M205.061 150.106C205.061 152.36 204.256 154.399 202.968 156.009C202.055 157.082 200.982 157.995 199.694 158.585C198.513 159.175 197.172 159.444 195.723 159.444C190.571 159.444 186.385 155.258 186.385 150.106C186.385 147.959 187.136 145.973 188.317 144.417C189.175 143.29 190.249 142.378 191.537 141.734C192.771 141.09 194.22 140.768 195.723 140.768C200.821 140.768 205.061 144.954 205.061 150.106Z" fill="#F9A95A"/>
<path d="M204.578 148.549C204.578 150.589 203.88 152.467 202.646 153.97C201.841 154.989 200.821 155.794 199.64 156.331C198.513 156.868 197.333 157.136 195.991 157.136C191.268 157.136 187.404 153.326 187.404 148.549C187.404 146.564 188.048 144.793 189.175 143.344C189.98 142.324 190.946 141.465 192.127 140.929C193.308 140.338 194.596 140.016 195.937 140.016C200.767 139.963 204.578 143.827 204.578 148.549Z" fill="#28A745"/>
<path d="M202.699 153.97C201.894 154.989 200.874 155.794 199.694 156.331L189.282 143.344C190.087 142.324 191.053 141.465 192.234 140.929L202.699 153.97Z" fill="#BDFFCC"/>
<path d="M196.635 181.125C194.595 181.93 192.502 181.984 190.57 181.393C189.282 181.018 188.048 180.32 187.028 179.354C186.062 178.495 185.311 177.368 184.774 176.134C182.896 171.465 185.096 166.152 189.765 164.274C191.697 163.469 193.737 163.415 195.615 163.952C196.903 164.327 198.137 164.971 199.211 165.884C200.23 166.796 201.089 167.923 201.626 169.265C203.558 173.934 201.304 179.247 196.635 181.125Z" fill="#F9A95A"/>
<path d="M196.635 178.925C194.756 179.676 192.717 179.73 190.892 179.193C189.658 178.817 188.531 178.173 187.565 177.315C186.653 176.51 185.955 175.49 185.472 174.256C183.701 169.855 185.794 164.864 190.141 163.093C191.966 162.342 193.898 162.288 195.669 162.771C196.903 163.093 198.03 163.737 199.05 164.596C200.016 165.454 200.821 166.528 201.357 167.816C203.128 172.163 201.035 177.154 196.635 178.925Z" fill="#28A745"/>
<path d="M199.05 164.542L190.893 179.193C189.658 178.817 188.531 178.173 187.565 177.315L195.669 162.771C196.957 163.093 198.084 163.683 199.05 164.542Z" fill="#BDFFCC"/>
<path d="M196.957 191.161L185.687 189.443C184.935 189.336 184.399 188.638 184.506 187.887C184.613 187.136 185.257 186.599 186.009 186.706L197.279 188.424C198.03 188.531 198.567 189.229 198.459 189.98C198.352 190.731 197.654 191.268 196.957 191.161Z" fill="#10411B"/>
<path d="M196.205 197.386L184.935 195.669C184.184 195.561 183.647 194.864 183.755 194.112C183.862 193.361 184.506 192.824 185.257 192.932L196.527 194.649C197.279 194.756 197.815 195.454 197.708 196.205C197.654 197.01 196.957 197.493 196.205 197.386Z" fill="#10411B"/>
<path d="M195.508 203.665L184.238 201.948C183.486 201.84 182.95 201.143 183.057 200.391C183.164 199.64 183.808 199.103 184.56 199.211L195.83 200.928C196.581 201.035 197.118 201.733 197.01 202.484C196.957 203.236 196.259 203.772 195.508 203.665Z" fill="#10411B"/>
<path d="M194.81 209.89L183.54 208.173C182.789 208.066 182.252 207.368 182.359 206.617C182.467 205.865 183.111 205.329 183.862 205.436L195.132 207.153C195.883 207.261 196.42 207.958 196.313 208.71C196.259 209.461 195.561 209.998 194.81 209.89Z" fill="#10411B"/>
<path d="M180.535 141.734L180.213 145.115L174.524 205.114C174.309 207.153 173.451 208.978 172.109 210.32C170.231 212.252 167.494 213.271 164.596 212.788L100.464 202.645C93.7558 201.572 88.9258 195.561 89.3551 188.746L92.7898 134.972L92.8971 133.201L93.1118 130.249C93.3801 126.17 97.0295 123.111 101.108 123.594L173.021 132.235C177.637 132.879 180.964 137.065 180.535 141.734Z" fill="#F8FBFF"/>
<path d="M180.535 141.734L180.213 145.115L92.8972 133.254L93.1119 130.303C93.3802 126.224 97.0295 123.165 101.108 123.648L173.022 132.288C177.637 132.879 180.964 137.065 180.535 141.734Z" fill="#BDFFCC"/>
<path d="M101.645 129.766C101.484 130.839 100.464 131.644 99.337 131.483C98.21 131.322 97.3514 130.356 97.5124 129.283C97.6734 128.21 98.693 127.405 99.82 127.566C100.947 127.727 101.752 128.693 101.645 129.766Z" fill="white"/>
<path d="M110.124 130.786C109.963 131.859 108.943 132.664 107.816 132.503C106.689 132.342 105.831 131.376 105.992 130.303C106.153 129.229 107.172 128.424 108.299 128.585C109.426 128.746 110.231 129.712 110.124 130.786Z" fill="white"/>
<path d="M118.55 131.805C118.389 132.879 117.369 133.684 116.242 133.523C115.115 133.362 114.256 132.396 114.417 131.322C114.578 130.249 115.598 129.444 116.725 129.605C117.906 129.712 118.711 130.732 118.55 131.805Z" fill="white"/>
<path d="M172.109 210.32C170.231 212.252 167.494 213.271 164.596 212.788L100.464 202.645C93.7558 201.572 88.9258 195.561 89.3551 188.746L92.7898 134.972C93.9168 153.594 91.0725 174.363 101.43 186.17C116.618 203.504 130.41 203.397 172.109 210.32Z" fill="#E1ECFF"/>
<path d="M120.374 155.311L117.691 154.882C116.993 154.775 116.403 155.204 116.349 155.902L115.544 163.254L112.163 162.878C111.573 162.771 111.197 162.181 111.412 161.644L113.827 155.741C114.149 154.989 113.612 154.131 112.807 154.023L110.607 153.648C110.07 153.54 109.534 153.862 109.319 154.345L105.509 163.791C105.079 164.864 105.777 166.098 106.958 166.313L115.061 167.708L113.612 180.803C113.559 181.501 114.042 182.145 114.739 182.252L117.262 182.628C117.906 182.735 118.496 182.306 118.603 181.608L121.501 156.814C121.555 156.116 121.072 155.419 120.374 155.311Z" fill="#28A745"/>
<path d="M158.639 161.698L155.902 161.215C155.204 161.107 154.56 161.59 154.506 162.234L153.648 169.855L150.106 169.479C149.515 169.372 149.14 168.728 149.354 168.191L151.823 162.073C152.145 161.322 151.608 160.41 150.75 160.249L148.496 159.873C147.905 159.766 147.369 160.088 147.154 160.571L143.183 170.338C142.753 171.465 143.505 172.753 144.685 172.968L153.057 174.363L151.555 187.941C151.501 188.638 151.984 189.336 152.735 189.443L155.365 189.819C156.063 189.926 156.653 189.443 156.76 188.799L159.766 163.093C159.873 162.449 159.336 161.805 158.639 161.698Z" fill="#28A745"/>
<path d="M133.469 157.029C128.156 156.546 125.043 159.551 123.755 168.406C122.145 179.408 125.043 183.862 130.41 185.096C137.709 186.814 138.997 180.535 140.446 171.25C141.895 161.966 138.782 157.512 133.469 157.029ZM136.099 171.036C135.401 177.529 133.415 181.232 131 180.642C128.424 179.998 127.458 176.993 128.21 169.318C128.8 163.147 130.303 161.054 132.825 161.268C135.347 161.537 136.796 164.542 136.099 171.036Z" fill="#28A745"/>
<path d="M203.504 87.4766C200.928 87.423 199.801 81.2513 202.216 79.695C204.631 78.1386 206.348 81.305 206.402 83.6126C206.456 85.9203 205.812 87.584 203.504 87.4766Z" fill="#FF8D76"/>
<path d="M233.289 69.6056C230.928 69.552 229.908 63.9706 232.162 62.5753C234.362 61.18 235.865 64.0243 235.919 66.1173C235.972 68.2103 235.382 69.6593 233.289 69.6056Z" fill="#FEC272"/>
<path d="M256.849 58.2283C254.434 58.1747 253.36 52.4323 255.668 50.9833C257.976 49.5343 259.478 52.486 259.586 54.6327C259.693 56.7793 258.995 58.3357 256.849 58.2283Z" fill="#FF8D76"/>
<path d="M276.437 102.503C274.398 101.967 274.666 96.7609 276.92 96.0096C279.174 95.2583 279.925 98.049 279.55 99.9273C279.174 101.806 278.315 102.986 276.437 102.503Z" fill="#FEC272"/>
<path d="M70.7862 156.921C68.2639 156.546 67.7809 150.374 70.4106 149.14C73.0403 147.905 74.2746 151.179 74.1136 153.433C73.8989 155.741 73.0939 157.19 70.7862 156.921Z" fill="#FEC272"/>
<path d="M63.5413 137.065C61.5557 136.796 61.2337 131.966 63.2193 131C65.205 130.034 66.2247 132.557 66.0637 134.328C65.9563 136.152 65.3123 137.333 63.5413 137.065Z" fill="#FF8D76"/>
<path d="M48.9976 168.943C45.7776 168.513 45.1872 160.571 48.5146 159.014C51.7882 157.458 53.4519 161.59 53.2372 164.542C52.9689 167.44 51.9492 169.318 48.9976 168.943Z" fill="#FEC272"/>
<path d="M82.7539 115.705L57.2086 95.3656L52.5933 103.791L82.7539 115.705Z" fill="#FEC272"/>
<path d="M83.9883 109.963L59.1943 85.7593L68.4787 79.7487L83.9883 109.963Z" fill="#FEC272"/>
<path d="M80.3389 80.6074L89.0329 107.655L88.1742 79.8024L80.3389 80.6074Z" fill="#FEC272"/>
</svg>
