<svg width="20" height="20" viewBox="0 0 20 20" fill="none" xmlns="http://www.w3.org/2000/svg">
<path d="M18.3333 12.5C18.3333 15.725 15.725 18.3333 12.5 18.3333L13.375 16.875" stroke="#282828" stroke-linecap="round" stroke-linejoin="round"/>
<path d="M1.66699 7.50001C1.66699 4.27501 4.27533 1.66667 7.50033 1.66667L6.62533 3.12501" stroke="#282828" stroke-linecap="round" stroke-linejoin="round"/>
<path d="M17.8333 3.50001V3.50834H10.5V3.50001C10.5 2.76291 10.6044 2.50396 10.721 2.38822C10.839 2.27112 11.1038 2.16667 11.85 2.16667H16.4833C17.2295 2.16667 17.4944 2.27112 17.6124 2.38822C17.729 2.50396 17.8333 2.76291 17.8333 3.50001Z" fill="#282828" stroke="#282828"/>
<path d="M10.5 6.09166V5.34166H17.8333V6.09166V6.91666C17.8333 7.65376 17.729 7.9127 17.6124 8.02844C17.4944 8.14554 17.2295 8.24999 16.4833 8.24999H11.85C11.1038 8.24999 10.839 8.14554 10.721 8.02844C10.6044 7.9127 10.5 7.65375 10.5 6.91666V6.09166Z" fill="#282828" stroke="#282828"/>
<path d="M9.50033 13.0833V13.0917H2.16699V13.0833C2.16699 12.3462 2.27134 12.0873 2.38796 11.9716C2.50595 11.8544 2.7708 11.75 3.51699 11.75H8.15033C8.89652 11.75 9.16137 11.8544 9.27936 11.9716C9.39597 12.0873 9.50033 12.3462 9.50033 13.0833Z" fill="#282828" stroke="#282828"/>
<path d="M2.08366 14.425C1.85033 14.425 1.66699 14.6083 1.66699 14.8417V15.675V16.5C1.66699 17.9667 2.03366 18.3333 3.51699 18.3333H8.15033C9.63366 18.3333 10.0003 17.9667 10.0003 16.5V15.675V14.8417C10.0003 14.6083 9.81699 14.425 9.58366 14.425H2.08366Z" fill="#282828"/>
</svg>
