<svg width="16" height="16" viewBox="0 0 16 16" fill="none" xmlns="http://www.w3.org/2000/svg">
<path d="M7.99999 1.33337C6.25333 1.33337 4.83333 2.75337 4.83333 4.50004C4.83333 6.21337 6.17333 7.60004 7.92 7.66004C7.97333 7.65337 8.02666 7.65337 8.06666 7.66004C8.08 7.66004 8.08666 7.66004 8.09999 7.66004C8.10666 7.66004 8.10666 7.66004 8.11333 7.66004C9.81999 7.60004 11.16 6.21337 11.1667 4.50004C11.1667 2.75337 9.74666 1.33337 7.99999 1.33337Z" fill="#696969"/>
<path d="M11.3867 9.4333C9.52667 8.1933 6.49334 8.1933 4.62 9.4333C3.77334 9.99996 3.30667 10.7666 3.30667 11.5866C3.30667 12.4066 3.77334 13.1666 4.61334 13.7266C5.54667 14.3533 6.77334 14.6666 8 14.6666C9.22667 14.6666 10.4533 14.3533 11.3867 13.7266C12.2267 13.16 12.6933 12.4 12.6933 11.5733C12.6867 10.7533 12.2267 9.9933 11.3867 9.4333Z" fill="#696969"/>
</svg>
