<svg width="16" height="17" viewBox="0 0 16 17" fill="none" xmlns="http://www.w3.org/2000/svg">
<path d="M8.10666 7.74671C8.03999 7.74004 7.95999 7.74004 7.88666 7.74671C6.29999 7.69337 5.03999 6.39337 5.03999 4.79337C5.03999 3.16004 6.35999 1.83337 7.99999 1.83337C9.63333 1.83337 10.96 3.16004 10.96 4.79337C10.9533 6.39337 9.69333 7.69337 8.10666 7.74671Z" stroke="#282828" stroke-width="1.2" stroke-linecap="round" stroke-linejoin="round"/>
<path d="M4.77334 10.2066C3.16001 11.2866 3.16001 13.0466 4.77334 14.12C6.60667 15.3466 9.61334 15.3466 11.4467 14.12C13.06 13.04 13.06 11.28 11.4467 10.2066C9.62001 8.98663 6.61334 8.98663 4.77334 10.2066Z" stroke="#282828" stroke-width="1.2" stroke-linecap="round" stroke-linejoin="round"/>
</svg>
