<svg width="16" height="27" viewBox="0 0 16 27" fill="none" xmlns="http://www.w3.org/2000/svg">
<path d="M0.376953 8.33398C0.376953 6.84961 0.748047 5.5446 1.49023 4.41895C2.23242 3.28092 3.20964 2.39648 4.42188 1.76562C5.63411 1.1224 6.9515 0.800781 8.37402 0.800781C9.51204 0.800781 10.6686 1.03581 11.8438 1.50586C13.0312 1.97591 14.1507 2.72428 15.2021 3.75098L12.7344 8.35254C11.9922 7.65983 11.2562 7.16504 10.5264 6.86816C9.80892 6.55892 9.14095 6.4043 8.52246 6.4043C7.66895 6.4043 6.95768 6.6084 6.38867 7.0166C5.83203 7.41243 5.55371 7.86393 5.55371 8.37109C5.55371 8.86589 5.73926 9.3112 6.11035 9.70703C6.48145 10.1029 6.94531 10.5049 7.50195 10.9131C8.05859 11.3213 8.60905 11.8037 9.15332 12.3604C9.70996 12.9046 10.1738 13.5788 10.5449 14.3828C10.916 15.1868 11.1016 16.1826 11.1016 17.3701V17.7412H5.73926V17.4072C5.73926 16.665 5.60938 16.0651 5.34961 15.6074C5.08984 15.1374 4.75586 14.7415 4.34766 14.4199C3.93945 14.0859 3.50651 13.7705 3.04883 13.4736C2.60352 13.1644 2.17676 12.8057 1.76855 12.3975C1.36035 11.9769 1.02637 11.445 0.766602 10.8018C0.506836 10.1585 0.376953 9.33594 0.376953 8.33398ZM4.81152 23.5674C4.81152 22.5778 5.16406 21.7614 5.86914 21.1182C6.57422 20.4749 7.42155 20.1533 8.41113 20.1533C9.40072 20.1533 10.2419 20.4749 10.9346 21.1182C11.6396 21.7614 11.9922 22.5778 11.9922 23.5674C11.9922 24.5446 11.6396 25.361 10.9346 26.0166C10.2419 26.6598 9.40072 26.9814 8.41113 26.9814C7.39681 26.9814 6.54329 26.6598 5.85059 26.0166C5.15788 25.361 4.81152 24.5446 4.81152 23.5674Z" fill="white"/>
</svg>
