<svg width="20" height="20" viewBox="0 0 20 20" fill="none" xmlns="http://www.w3.org/2000/svg">
<path d="M15.4003 10.2083C15.6336 10.2083 15.8336 10.0083 15.8169 9.775C15.5919 6.75 13.0753 4.375 10.0003 4.375C6.92526 4.375 4.40859 6.75 4.18359 9.775C4.16692 10.0083 4.36692 10.2083 4.60026 10.2083H15.4003Z" fill="#282828"/>
<path d="M18.333 10.8333H18.2663C17.808 10.8333 17.433 10.4583 17.433 9.99999C17.433 9.54166 17.808 9.16666 18.2663 9.16666C18.7247 9.16666 19.133 9.54166 19.133 9.99999C19.133 10.4583 18.7913 10.8333 18.333 10.8333ZM1.73301 10.8333H1.66634C1.20801 10.8333 0.833008 10.4583 0.833008 9.99999C0.833008 9.54166 1.20801 9.16666 1.66634 9.16666C2.12467 9.16666 2.53301 9.54166 2.53301 9.99999C2.53301 10.4583 2.19134 10.8333 1.73301 10.8333ZM15.8413 4.99166C15.6247 4.99166 15.4163 4.90833 15.2497 4.74999C14.9247 4.42499 14.9247 3.89999 15.2497 3.57499L15.358 3.46666C15.683 3.14166 16.208 3.14166 16.533 3.46666C16.858 3.79166 16.858 4.31666 16.533 4.64166L16.4247 4.74999C16.2663 4.90833 16.058 4.99166 15.8413 4.99166ZM4.15801 4.99166C3.94134 4.99166 3.73301 4.90833 3.56634 4.74999L3.45801 4.63333C3.13301 4.30833 3.13301 3.78333 3.45801 3.45833C3.78301 3.13333 4.30801 3.13333 4.63301 3.45833L4.74134 3.56666C5.06634 3.89166 5.06634 4.41666 4.74134 4.74166C4.58301 4.90833 4.36634 4.99166 4.15801 4.99166ZM9.99967 2.53333C9.54134 2.53333 9.16634 2.19166 9.16634 1.73333V1.66666C9.16634 1.20833 9.54134 0.833328 9.99967 0.833328C10.458 0.833328 10.833 1.20833 10.833 1.66666C10.833 2.12499 10.458 2.53333 9.99967 2.53333Z" fill="#282828"/>
<path d="M16.6663 13.125H3.33301C2.99134 13.125 2.70801 12.8417 2.70801 12.5C2.70801 12.1583 2.99134 11.875 3.33301 11.875H16.6663C17.008 11.875 17.2913 12.1583 17.2913 12.5C17.2913 12.8417 17.008 13.125 16.6663 13.125Z" fill="#282828"/>
<path d="M15 15.625H5C4.65833 15.625 4.375 15.3417 4.375 15C4.375 14.6583 4.65833 14.375 5 14.375H15C15.3417 14.375 15.625 14.6583 15.625 15C15.625 15.3417 15.3417 15.625 15 15.625Z" fill="#282828"/>
<path d="M12.5 18.125H7.5C7.15833 18.125 6.875 17.8417 6.875 17.5C6.875 17.1583 7.15833 16.875 7.5 16.875H12.5C12.8417 16.875 13.125 17.1583 13.125 17.5C13.125 17.8417 12.8417 18.125 12.5 18.125Z" fill="#282828"/>
</svg>
